<svg xmlns="http://www.w3.org/2000/svg" viewBox="-152 355 306 84"><style>.st0{display:none;} .st1{display:inline;} .st2{fill:#0D2240;} .st3{fill:#00A8E1;} .st4{fill:#FFFFFF;} .st5{fill:none;}</style><g id="Layer_1" class="st0"><g class="st1"><path class="st2" d="M-23.3 393.5c-1.1.1-2.1.2-3.6.2-2.1 0-2.9 0-4.4-.2-.3 0-.3.6-.2.6 3.1.4 3.3.8 3.3 5.3v8.4c0 4.8-2.4 7.4-7.1 7.4-3.6 0-7.4-2.4-7.4-8v-7.5c0-5 0-5.3 3.3-5.6.1 0 .3-.6-.1-.6-1 .1-2.8.2-4.3.2-2 0-3.6 0-5.1-.2-.3 0-.1.6.2.6 3.1.3 3.4.3 3.4 5.6v8.2c0 5.6 4.3 9 9.6 9 6.2 0 9.4-4 9.4-8.7v-8.7c0-4.2 0-5 3.3-5.3 0-.2 0-.8-.3-.7m28.4 0c-1 .1-2 .2-3.5.2-2 0-2.9 0-4.3-.2-.3-.1-.1.6 0 .6 3.1.4 3.3.7 3.3 5.6v11.5L-16 393.8c-2.1 0-3.4-.1-4.9-.2-.4 0-.1.6 0 .6 1.6.2 4 2.2 4 3.8v12.2c0 4.8-.2 5.2-3.3 5.5-.1 0-.3.7 0 .7 1.5-.2 2.3-.2 4.3-.2 1.5 0 2.4.1 3.5.2.4 0 .3-.7.2-.7-3.2-.2-3.2-.9-3.2-5.5v-11.6l17.1 18c.2.2.6.1.6 0-.2-1.6-.3-4.8-.3-6.5v-10.5c0-4.6 0-5.3 3.2-5.6.2 0 .3-.6-.1-.5m12.3.5c.2 0 .4-.6 0-.6-1.1.1-2.8.2-4.2.2-2.1 0-3.6 0-5.1-.2-.4 0-.1.6 0 .6 3.1.4 3.3.4 3.3 5.6v10.5c0 5.2-.2 5.2-3.3 5.5-.1 0-.3.7 0 .7 1.5-.2 3.1-.2 5.2-.2 1.5 0 3.2.1 4.3.2.4 0 .1-.7-.1-.7-3.2-.2-3.3-.5-3.3-5.5v-10.5c-.2-5 0-5.3 3.2-5.6m42.2 18.1c-.5 2.3-.8 2.7-6.2 2.7h-1.9c-1.6 0-2.3-.3-2.3-4.9v-5.1h3.7c3.2 0 3.4.4 3.6 1.5 0 .1.7.1.6 0v-1.4c0-.8.1-1.6.2-2.2-.1-.1-.6-.3-.7-.2-.2.9.1 1.1-3.8 1.1h-3.7v-4.2c0-2.2.2-3.9.3-4.8H53c4.6 0 5.3.5 5.6 2.1 0 .1.7.2.6 0v-1.3c0-.7 0-1.4.2-2-2.1.2-4.4.3-7 .3-3.6 0-6.2-.2-10.3-.1-.2 0-.2 0-.3.1h-1.3c-1.5 0-2.4-.1-3.5-.2-.4 0-.1.6 0 .6 1.6.1 2.3.4 2.3 1.2 0 .8-.4 1.8-1.5 4.4l-5.6 12.6-5.2-12.7c-.9-2.2-1.4-3.7-1.4-4.4 0-.9.8-.9 2.4-1.2.2 0 .3-.7 0-.6-1.5.2-3.3.2-5.4.2-1.5 0-2.9-.1-4-.2-.3-.1-.1.6 0 .6 3.1.3 3.5 1.5 5.2 5.6l7.1 16.8c.1.3.5.2.6 0l7.6-16.8c1.8-4 2.1-5.2 4.8-5.5 2.4.3 2.4.8 2.4 5.4V410c0 5.3 0 5.1-3.5 5.5-.1 0-.2.7.1.7 2.5-.2 6.2-.2 9.7-.2 2.6 0 4.8.2 6.1.2.6 0 .8-.1 1-.7.2-.7.5-2.4.7-3.3-.1-.1-.8-.2-.8-.1m29-14.7c0-2.2 2-3.6 4.2-3.6 2.5 0 4.3 1.3 4.7 3.9 0 .1.7.1.7 0 0-2.3-.2-3.7-.5-3.8-1.2-.7-2.5-1.1-4.6-1.1-4 0-6.9 3.2-6.9 6.5 0 6.3 10.5 6.4 10.5 12.2 0 2.8-2.3 4.1-4.6 4.1-3.6 0-5.6-2.3-5.8-5.9 0-.1-.6-.1-.6 0-.1 2.4-.4 4.5-.2 4.6 1.8 1.5 3.9 2.3 6.4 2.3 4.2 0 7.1-3.2 7.1-7.1-.1-6.6-10.4-6.5-10.4-12.1m23.6-3.5c.2 0 .3-.6 0-.6-1.1.1-2.8.2-4.3.2-2.1 0-3.7 0-5.2-.2-.3 0-.1.6 0 .6 3.1.4 3.3.4 3.3 5.6V410c0 5.2-.2 5.2-3.3 5.5-.1 0-.3.7 0 .7 1.5-.2 3.1-.2 5.2-.2 1.5 0 3.2.1 4.3.2.4 0 .2-.7 0-.7-3.2-.2-3.2-.5-3.2-5.5v-10.5c0-5 0-5.3 3.2-5.6m41.4-.5c-1.1.1-1.7.2-3.1.2-2 0-2.8 0-4.2-.2-.3-.1-.2.6 0 .6 2.8.3 2.5.6-.8 5.4l-3 4.2-2.3-3.5c-3.3-4.9-4-5.9-1-6.2.1 0 .3-.6-.1-.6-1.1.1-3 .4-4.5.4-1 0-.9-.1-3-.1h-12c-5 0-5.8-.6-6-.4-.2.3 0 3.2-.1 3.9 0 .1.5.1.6 0 .4-1.6 1.1-2.4 5.5-2.4h2.7v14.9c0 5.2-.2 5.1-3.2 5.4-.2 0-.3.7 0 .7 1.5-.2 3.1-.2 5.1-.2 1.4 0 3.2.1 4.2.2.3 0 .2-.7.1-.7-3.2-.2-3.2-.5-3.2-5.4v-14.9h5.4c2.3.3 3.1.7 6.2 5.4l3.2 4.8v4.8c0 5.2-.2 5.1-3.3 5.4-.1 0-.3.7 0 .7 1.5-.2 3.1-.2 5-.2 1.5 0 3.2.1 4.3.2.3 0 .2-.7.1-.7-3.2-.2-3.1-.5-3.1-5.4v-5.1l3.7-5.2c3.3-4.6 3.9-5.3 6.9-5.5.1.1.2-.5-.1-.5"/><path class="st2" d="M85.9 416.2c-3.8 0-10.7-10.8-9.8-11.2H76c.1-.1.3-.1.4-.2 2.4-1.3 4.3-3.1 4.3-6-.1-3.9-4.2-5.4-9.3-5.4-3.8 0-7.3.1-8.8.6-.3.1-.1.7.1.6.5-.1 1-.1 1.4-.1 2 0 2.1 1.2 2.1 5.2v10.5c0 5.2-.2 5.2-3.3 5.5-.1 0-.3.7 0 .7 1.5-.2 3.1-.2 5.1-.2 1.5 0 3.2.1 4.3.2.4 0 .2-.7.1-.7-3.2-.2-3.2-.5-3.2-5.5V406h1.9c1.2 0 2.1.3 2.7 1.3 2.7 4.9 7.1 9.5 12.2 9.5.2.1 0-.6-.1-.6m-15.4-11.1h-1.3v-5.8c0-2.5 0-4.2.2-4.9.6 0 1-.1 1.6-.1 3.5 0 6.6 1.2 6.6 6 0 2.9-1.9 4.8-7.1 4.8M-35.1 366.9c3.1-.9 5.3-3.4 5.3-5.8 0-4.1-3.9-6.2-8.6-6.2-1.4 0-4.1.2-5 .2-2.4 0-3.6 0-5.4-.2-.4 0-.2.7-.1.7 3.7.4 3.8.4 3.8 6.6v12.4c0 6.2-.1 6.1-3.8 6.5-.1 0-.3.8.1.8 1.7-.2 3.7-.2 6.1-.2 1 0 3.8.2 5.2.2 6.3 0 10.2-3.6 10.2-8.3 0-3.8-3.3-6.5-7.8-6.7m-2.8 13.6c-3.1 0-3.3-.5-3.3-5.9V362c0-3.1-.1-4.7.2-5.9.7-.1 1-.2 1.6-.2 3.6 0 6 1.4 6 5.6 0 3.9-2.1 5.2-7.1 5.2-.2 0-.2.8 0 .8 5.9-.6 9.5 2.4 9.5 6.5 0 5-2.3 6.5-6.9 6.5m57-13.6c3.1-.9 5.3-3.4 5.3-5.8 0-4.1-3.9-6.2-8.6-6.2-1.4 0-4.1.2-5 .2-2.4 0-3.6 0-5.4-.2-.4 0-.1.7.1.7 3.7.4 4 .4 4 6.6v12.4c0 6.2-.3 6.1-4 6.5-.1 0-.4.8 0 .8 1.7-.2 3.6-.2 6-.2 1 0 3.8.2 5.2.2 6.3 0 10.2-3.6 10.2-8.3 0-3.8-3.2-6.5-7.8-6.7m-2.7 13.6c-3.1 0-3.3-.5-3.3-5.9V362c0-3.1 0-4.7.2-5.9.7-.1 1-.2 1.6-.2 3.5 0 6 1.4 6 5.6 0 3.9-2.1 5.2-7.1 5.2-.2 0-.2.8 0 .8 5.9-.6 9.4 2.4 9.4 6.5.1 5-2.3 6.5-6.8 6.5m32-25.7c-1.3.2-3.3.2-5.1.2-2.4 0-4.3 0-6.1-.2-.4 0-.1.7.1.7 3.7.4 4 .4 4 6.6v12.4c0 8.9-1.4 12.3-7.1 14.7-.1 0 0 .8.3.7 7.9-3.1 10.4-7.3 10.4-15.4v-12.4c0-5.9-.1-6.3 3.7-6.6.1 0 .2-.8-.2-.7m16.2-.6c-9.1 0-14.1 7.6-14.1 14.5 0 7.1 4.6 13.7 13.4 13.7 9.2 0 14.2-7.6 14.2-14.5-.1-7.2-4.8-13.7-13.5-13.7m.2 26.9c-5.9 0-10.6-4.7-10.6-13.7 0-7.5 3.3-11.9 9.5-11.9 5.9 0 10.7 4.7 10.7 13.8-.1 7.4-3.4 11.8-9.6 11.8m45.6-26.3c-1.2.2-2.4.2-4.2.2-2.4 0-3.4 0-5.1-.2-.3-.1-.1.7 0 .7 3.7.4 3.9.9 3.9 6.6v13.6l-19.7-20.6c-2.4 0-4.1-.1-5.8-.3-.4 0-.4.7-.3.7 1.9.2 4.4 2.6 4.4 4.5v14.5c0 5.7 0 6.2-3.7 6.5-.1 0-.3.8.1.8 1.7-.2 2.8-.2 5.2-.2 1.7 0 2.9.1 4.2.2.4 0 0-.8-.1-.8-3.8-.3-4-1-4-6.5v-13.7L106 382c.3.3.8.1.8 0-.2-1.7-.3-5.5-.3-7.6V362c0-5.5.1-6.3 3.9-6.6.2 0 .4-.7 0-.6m23 22c-.6 2.7-1 3.2-7.3 3.2H124c-1.9 0-2.8-.4-2.8-5.8v-6h4.5c3.8 0 4 .5 4.3 1.8 0 .1.8.2.7 0v-1.6c0-.9.1-1.9.3-2.6-.1-.1-.7-.4-.8-.2-.2 1.1.1 1.3-4.5 1.3h-4.5v-5c0-2.6.3-4.6.5-5.7h4c5.4 0 6.3.6 6.6 2.4 0 .1.8.3.7 0v-1.5c0-.9 0-1.6.3-2.4-2.4.2-5.2.3-8.3.3-4.2 0-8.3-.1-11.3-.3-.4 0-.1.7 0 .7 4.2.5 4.3.3 4.3 6.6v12.4c0 6.2-.1 6.1-4.3 6.5-.1 0-.4.8 0 .8 3-.2 7.3-.2 11.4-.2 3 0 5.7.2 7.2.2.7 0 .9-.1 1.2-.9.2-.9.6-2.8.8-3.9-.1-.1-.9-.1-.9-.1m8.4-17.2c0-2.6 2.4-4.2 5-4.2 3 0 5 1.6 5.5 4.6 0 .1.8.2.8 0 0-2.8-.3-4.3-.6-4.5-1.4-.8-3-1.3-5.4-1.3-4.8 0-8.1 3.8-8.1 7.6 0 7.5 12.4 7.6 12.4 14.4 0 3.3-2.7 4.8-5.5 4.8-4.3 0-6.6-2.8-6.9-7 0-.1-.7-.2-.7 0-.2 2.9-.5 5.3-.2 5.5 2.2 1.8 4.6 2.8 7.5 2.8 5 0 8.5-3.8 8.5-8.4-.1-7.8-12.3-7.7-12.3-14.3m-151.9-5.4c-9.1 0-14.1 7.6-14.1 14.5 0 7.1 4.6 13.7 13.4 13.7 9.2 0 14.2-7.6 14.2-14.5-.1-7.2-4.8-13.7-13.5-13.7m.2 26.9c-5.9 0-10.6-4.7-10.6-13.7 0-7.5 3.3-11.9 9.5-11.9 5.9 0 10.7 4.7 10.7 13.8-.1 7.4-3.4 11.8-9.6 11.8"/></g><path class="st1 st3" d="M-41.4 434.4c-.5 0-1.4-.1-2.5-.1-1.4 0-3.1 0-4.2.1-.1 0-.1-.4 0-.4 1.4-.2 1.6-.4 1.6-2.1v-4.2c0-1.8-.1-2-1.6-2.2-.1 0-.1-.4 0-.4 1.1.1 2.7.1 4.1.1 1 0 2 0 2.8-.1-.1.3-.1.7-.1 1v.7s-.4.1-.4 0c-.1-.6-.3-.9-2.2-.9h-1.2c-.1.3-.1.8-.1 1.7v1.7h.9c1.6 0 1.7 0 1.8-.6 0 0 .4-.1.3 0-.1.2-.1.8-.1 1.1v.8h-.4c-.1-.7-.2-.8-1.8-.8h-.5v1.9c0 1.8.1 2 .7 2h.7c2.2 0 2.2-.3 2.4-1.2h.4c-.1.4-.2 1.3-.3 1.6 0 .3-.1.3-.3.3zm2.9-.8c-.1-.1 0-1.1 0-2.1 0-.1.3-.1.3 0 .1 1.4.9 2.6 2.3 2.6 1 0 1.7-.6 1.7-1.5 0-2.3-4.1-2.3-4.1-4.9 0-1.3 1.2-2.6 2.9-2.6.8 0 1.4.2 1.8.5.1.1.3.8.3 1.8 0 .1-.4.1-.4 0-.2-1-.8-1.7-1.9-1.7-.9 0-1.5.4-1.5 1.3 0 2.3 4.1 2.2 4.1 4.9 0 1.5-1.2 2.9-3 2.9-1-.1-1.8-.6-2.5-1.2zm16.4-6.6c0 .1-.3 0-.3 0-.1-.6-.6-1-2.1-1h-1.2v6c0 1.7.1 2 1.4 2.1.1 0 .1.4-.1.4-.4-.1-1.4-.1-2-.1-.8 0-1.7 0-2.3.1-.2 0-.1-.4 0-.4 1.2-.1 1.4-.4 1.4-2.1v-6h-1.3c-1.4 0-2 .4-2.2 1.1h-.3c.1-.3.1-1 .1-1.4 0-.1 0-.4-.1-.7 0-.1.3-.1.3 0 .1.5.2.5 2.2.5h4.1c2 0 2.1 0 2.2-.5 0-.1.4 0 .3 0-.1.3-.1.8-.1 1.3v.7zm1.7 7.7c-.5 0-.8-.4-.8-.8s.3-.8.8-.8.8.4.8.8c.1.4-.3.8-.8.8zm12.3-.3c-.4-.1-1.6-.1-2.2-.1-.8 0-2 0-2.6.1-.1 0-.1-.4 0-.4 1.2-.1 1.7-.2 1.7-1.7v-4.7c0-1.6-.5-1.6-1.7-1.7-.1 0-.1-.4 0-.3.6.1 1.8.1 2.6.1.6 0 1.8 0 2.2-.1.1 0 .1.3 0 .3-1.2.1-1.7.3-1.7 1.7v4.7c0 1.5.4 1.6 1.7 1.7.1.1.1.5 0 .4zm2.3 3.2c-.1 0-.2-.3-.1-.3 4.9-1.8 6.2-4.9 6.2-7.9 0-2.3-1.2-3.5-2.6-3.5-1.4 0-2.2 1.2-2.2 2.9 0 1.5.9 2.5 2.2 2.5.4 0 .8-.1 1-.2.1-.1.3.2.2.2-.5.5-1.3.9-2 .9-1.9 0-3-1.6-3-3 0-2 1.7-3.8 4-3.8 2.6 0 4.1 1.9 4.1 4.1 0 3-2.1 6.4-7.8 8.1zm16.9-3.5c-.1.2-.1.3-.4.3-.6 0-1.9-.1-3.1-.1-1.6 0-2.7 0-3.9.1-.1 0-.2-.4-.1-.5 3.2-1.7 5-3.3 5-5.3 0-1.4-.8-2.2-1.9-2.2-.9 0-1.5.4-2.2 1.1-.1.1-.3-.2-.2-.3.8-1.1 1.8-1.9 3-1.9 1.7 0 2.8 1.3 2.8 2.7 0 1.8-2 3.8-3.9 4.9h2.6c1.8 0 2.1-.1 2.2-1.3 0 0 .3-.1.3 0 0 .6-.1 2.2-.2 2.5zm3.4 3.5c-.1.2-1-.2-.9-.4 2.2-3.7 4.3-7.5 5.8-10.2h-3.9c-1.8 0-2.1.3-2.2 1.4H13c0-.4.1-2.3.2-2.6.1-.2.1-.3.4-.3.6 0 1.8.1 3 .1 1.6 0 2.6 0 3.8-.1.1 0 .3.4.2.5-1.7 3.1-4.3 8.1-6.1 11.6z"/><g class="st1"><path class="st2" d="M-102.9 403.9c-1.6-.1-4.6-.5-8.4-.8l-14.4 14.4c1.9 2.5 4.4 5 7.7 7.5 0 0 11.8 9.2 18.2 9.3 6.4 0 18.2-9.3 18.2-9.3 3.3-2.4 5.7-4.9 7.6-7.4l-12.3-12.3c-7.2-.4-13.8-1.2-16.6-1.4z"/><path class="st3" d="M-67.4 392.4v-34.2l-28 28 7 7c7.1.5 15.4.7 21-.8zm-41.1-.9l5.2-5.2-28-28v33.1c6.9-1 16.1-.4 22.8.1z"/><path class="st2" d="M-71.4 354.4h-55.8l27.9 27.9"/><path class="st4" d="M-107.7 364.2c.1-.4.2-1.2.9-.8 2.2.5 4.2.5 6.5.6l.2-.1c0-1.8-.3-3.6-.6-5.3-.4-.7.4-.8.8-.9.2-.1.2-.5.5-.4.3-.1.3.4.5.4.4.1 1.2.2.8.9-.3 1.7-.6 3.5-.5 5.3l.2.1c2.3-.1 4.3-.1 6.5-.6.7-.4.8.4.9.8.1.2.5.2.4.5 0 .3-.4.3-.4.5-.1.4-.2 1.2-.9.8-2.4-.3-4-.7-6.6-.6l-.1.1c.1 2.9.2 5.5.8 8 .5.8-.5.9-1 1-.3.1-.2.5-.6.5-.4 0-.3-.4-.6-.5-.5-.1-1.5-.2-1-1 .5-2.5.9-5.2.9-8l-.1-.1c-2.6-.1-4.2.3-6.6.6-.7.4-.8-.4-.9-.8-.1-.2-.5-.2-.4-.5 0-.2.4-.2.4-.5M-120.7 388.4V379c0-.9-2.7-1.5-5.8-1.5v10.2c3-.4 5.8 0 5.8.7m6.3-.7v-10.2c-3.2 0-5.8.7-5.8 1.5v9.4c-.1-.7 2.7-1.1 5.8-.7"/><path class="st4" d="M-120.7 389.4c-.9-1.2-4.4-1.3-6.2-1.3v-9.3h-.5v1.3c-.3-.2-.4.3-.5.6-.1.2-.3.1-.3.3 0 .2.2.2.3.4.1.3.2.8.5.6v3c-.3-.2-.4.3-.5.6-.1.2-.3.1-.3.3 0 .2.2.2.3.4.1.3.2.8.5.6v2s4.8.3 5.7.4v.1c0 .2.7.8 1.3.8.6 0 1.3-.6 1.3-.8v-.2c.9-.1 5.7-.4 5.7-.4v-2c.3.2.4-.3.5-.6.1-.2.3-.1.3-.4 0-.2-.2-.2-.3-.3-.1-.3-.2-.8-.5-.6v-3c.3.2.4-.3.5-.6 0-.2.3-.1.3-.4 0-.2-.2-.2-.3-.3-.1-.3-.2-.8-.5-.6v-1.3h-.5v9.3c-1.9 0-5.4.1-6.2 1.3h-.2l-.4.1zM-76.2 375.7c0 .4-.1.8-.1.9-.4.7-1.1 1.1-1.6 1.5-.3.2-.6.7-.6.7s-.1.1-.1-.1v-.3-.2c.1-.2.2-.4.4-.6.6-.4.7-.7.7-.7-.6.5-.7.2-1.1.5-.1.2-.1.4-.1.4h-.1c-.1-.1-.1-.2-.2-.3v-.3c0-.2 0-.2.1-.3.3-.5 1-.8 1.7-1.3.2-.2.4-.3.5-.5.1-.1.2-.3.2-.4v-.3s-.1-.2 0-.3c0-.1.1-.2.2-.1.1 0 .2.2.2.3-.2.6-.1.9-.1 1.4m-2.5 4.9h1.8c.2-.3.1-.4 0-.5-.2-.2-.7-.2-1.1-.2-.3-.1-.3-.6-.7-.6-.4 0-.4.5-.7.6-.3.1-.8.1-1.1.2-.1.1-.2.3 0 .5h1.8zm5.7.1c-.1-.1-.8.3-.8.4 0 .1 0 .3.1.5-.3.2-.8.4-1.2.4-.7.1-1.4-.4-1.7-.5 0 0 .1-.2.1-.3 0-.1-.2-.2-.2-.2h-3.7s-.2.1-.2.2c0 .2.1.3.1.3-.3.2-1 .6-1.7.5-.4 0-1-.2-1.2-.4.1-.2.1-.4.1-.5 0-.2-.7-.6-.8-.4-.3.3-.9 1.1-.6 2.6.2 1.1 1.3 1.9 2.1 2.9.1.1.2.2.3.4.4.5.2.7.3.9.1.2.4.2.5.1.3-.2.1-.6 0-.9.1.2.3.5.5.6.2.2.6.4.7.5.4.2.6.5.6.9s-.3.8-.8.9c-.1 0-.2.1-.3.1l-.3.3c-.1.1-.2.2-.4.3-.2.1-.4.3-.2.6 1 .1 2 .2 3.1.2s2.1-.1 3.1-.2c.3-.3 0-.5-.2-.6-.2-.1-.3-.2-.4-.3l-.3-.3c-.1 0-.2-.1-.3-.1-.5-.1-.8-.5-.8-.9s.2-.7.6-.9c.1-.1.5-.3.7-.5.2-.1.4-.5.5-.6-.1.3-.2.7 0 1 .1.1.4.1.5-.1.1-.2 0-.4.3-.9.1-.1.2-.3.3-.4.8-1 1.9-1.8 2.1-2.9.4-1.5-.2-2.4-.5-2.7m-10.7 3c-.1-.4-.1-.6-.1-1 .3.2 1.1.4 1.5.4-.1.4-.2.8-.2 1.1 0 .5.1 1 .3 1.4-.5-.5-1.3-1.1-1.5-1.9m10.1 0c-.2.7-1 1.3-1.5 1.9.2-.4.3-.9.3-1.4 0-.4-.1-.8-.2-1.1.4 0 1.2-.2 1.5-.4 0 .4 0 .7-.1 1m-8.8 7.5c-.1 0-.3.1-.4.2-.2.3-.2.6-.2.6s.5.2 1.8.3c1.3.1 2.7.1 2.7.1s1.3 0 2.7-.1c1.3-.1 1.8-.3 1.8-.3s0-.3-.2-.6c-.1-.1-.3-.2-.4-.2-1.1.2-2.4.3-3.8.3s-2.9-.2-4-.3M-94.4 425.9c0-.1-.2-.2-.3-.3.2-.1.3-.2.3-.2s-.4-.1-.6-.2c-.2-.6-.3-1.5-.4-2.2.3.1.5.2.6.1.2-.2.1-.9 0-1.1-.3-.4-.7-.5-.7-.8-.1-1.2-.2-2.1-.6-3.1-.1-.3-.4-.9-.6-1.3-.1-.2 0-.7.1-1.2.2.1.3.3.3.3s0-.4-.1-.6v-.3c0-.1.1-.2.2-.2.1.1.3.4.3.4s.2-.7.1-1c0-.1-.1-.2-.1-.3 0-.3.2-.5.3-.8.3-.7.7-1.5.7-2.1 0-1-.1-2.5-.2-3 0-.2-.1-.5.1-.6.4-.3.4-.9.3-1.1-.1-.2-.5-.3-.7-.2-.1.1-.3.3-.4.2 0-.1-.3-.6-.5-.6-.3-.1-.5.4-.6.4-.1 0-1.1-.2-1.5-.2-.3 0-.4 0-.6.1-.2.1-.1.3-.4.3-.4 0-1.6-.1-1.7 0-.1 0-.1.3-.1.5h.3c.1 0 .3-.1.3-.1s-.2.3-.3.3h-.3c0 .1 0 .4.1.5 0 0 .1 0 .1.1 0 .2.1.3.1.3s0-.3.1-.4c.1 0 .1-.1.1-.1v.2c0 .1.1.2.1.2s.1-.3.2-.3c.1-.1.7.4.8.7.1.3.1.6.1.7-.1.1-.7.1-.9 0-.1-.1-.1-.2-.2-.2 0-.1-.1-.2-.1-.2 0 .1-.1.3-.1.3s-.1 0-.1-.1l-.1-.3s-.1.1-.1.2v.4c0 .3.1.4.3.5.3 0 .5 0 .8.2.1.1.3.3.5.4 0 .1-.9.4-1.5.8-.4.3-.7.7-.7.7l-1.1-.5c-.4-.3-1.3-.7-1.4-1.1-.4-1 .9-1.2.6-2.2-.1-.2-.3-.5-.5-.6 0 .2.2.6 0 .7-.2-.3-.4-1-.9-.9.1.2.3.6.1.8-.1-.4-.3-.6-.7-.7.1.3.4.6.3 1-.3-.2-.7-.6-1.1-.6.3.2.6.5.6 1-.2-.2-.5-.2-.8-.1.1.2.4.3.4.6 0 .1-.1.2-.1.4.1.2.3.3.4.5.1.4.1.6.2.9.1.3.2.4.4.7.6.8 1.1 1.3 1.7 1.9 0 0 .3 0 1.4-.4-.7.6-1.7 1.3-2.2 1.7-.2.2-.6.4-.9.4-.5-.1-.8-.2-.9-.5-.1-.2-.1-.5-.3-.7-.3-.2-1-.3-1-.3s.5.2.5.4c0 0-.3-.1-.8 0-.3.1-.7.4-.7.4s.7-.1 1.1.1c.2.1.2.3.2.3s-.4-.1-.6-.1c-.3 0-.7.3-.7.3s.3 0 .4.1c.2.1.5.1.6.3 0 0-.4 0-.6.1-.2.1-.3.5-.3.5s.3-.2.5-.2.5.3.4.3c-.3.2-.6.3-.6.3s.2.1.5.1c.4-.1 1.1.5 1.4.6.6 0 1.9-.1 2.4-.3.6-.2 1.9-.6 2.5-.9.5-.3.8-.9.8-.9s0 .7-.6 1.2c-.3.3-1.7 1-1.7 1s-.1.9 0 1.4c.1.7.4 2.1.4 2 0 0 .6-.5.9-.7.8-.6 1.3-.7 1.8-.8-.4.2-1 .7-1.6 1.1-.6.5-1.9 1.9-2.3 2.8-.5 1.1-.3 2.8-.5 3.2-.2.3-.3.4-.5.6-.2.1-1 .5-1.2.4-.4-.2-1.1-.1-1.2.2 0 0 .7-.1.9.3 0 .1-.2 0-.4.2s-.3.6-.3.6.6-.3.7-.3h.2l-.2.2c-.2.2-.2.5-.2.5s.4-.4.8-.4c.1 0 .4.3 1.1.3h1.3c.4 0 .6.1.9 0 .1 0 .2-.1.3-.3.2.4.8.3.8.3s-.3-.4-.2-.6c0-.2 0-.5.1-.7.4-.9 1.1-1.9 1.8-2.2.6-.3 2-.6 2.9-1.4-.2.3-.7.7-1.1 1-.4.2-.8.3-1.1.6 0 0 .3.6.6.8.4.4.7.5.8.8 0 .1-.1.2-.4.3-.4.2-.7.1-.9.2-.8.3-.5.7-.5.7.4-.3 1.1-.6.9-.4-.4.4 0 .7 0 .7s.2-.3.4-.4c.2-.1.4-.1.4-.1-.3.2-.2.5-.1.6 0 0 .5-.4.7-.4.1 0 .1 0 .3.1.2.1.7-.1 1.1-.3.4-.5 1.2-1.8 1-2.2m-11.3-16.8c.1-.8.7-1.3 1.7-1.1-.9 0-1.3.6-1.7 1.1m7.3-2s-.2-.2-.1-.5h.3c.2 0 .4.2.4.2s-.2 0-.4.1l-.2.2m.4 2.7s1.3.1 1.9-.5c.4-.4.3-1 .3-1s.3.7.1 1c-.4.7-1.4.8-2.3.5"/><path class="st4" d="M-61 387.7c-2.3 9.3-32.5 4.9-39.8 4.5-7.1-.4-38.3-4.6-40.1 4.8.5 3.6.7 7.2.8 10.9 1.6-8.5 30.9-4.3 37.2-3.9 7.4.5 42 5.4 43.1-5.1-.4-3.8-.8-7.5-1.2-11.2z"/><path class="st2" d="M-148.2 407.9c1.8-1.9 4.9-3.3 8-3.9-.1-2.4-.3-4.7-.7-7.1.2-1.2.9-2.1 2-2.9-4.4.7-10 3.2-13 6.3 5.5-1.1 6-.8 8.9.1-3.5 2.6-5 4.1-5.2 7.5z"/><path class="st3" d="M-78.1 405.5l7.2 7.2c1.5-3.1 2.2-5.9 2.6-8-2.9.5-6.3.7-9.8.8zM-116.5 402.7l-11.4 11.4c.4.7.9 1.5 1.4 2.2l13.4-13.4c-1.1 0-2.2-.1-3.4-.2zm32.4 2.7l11 11c.6-.8 1-1.6 1.5-2.4l-8.5-8.5c-1.3 0-2.7-.1-4-.1zM-131.4 402.9c.2 2.2.8 5.8 2.8 9.9l10.2-10.2c-4.5-.2-9.1-.2-13 .3z"/><path class="st2" d="M-128.4 402.6c-.4 0-.9.1-1.3.1.4 0 .8 0 1.3-.1zm3.2-.1h-1.5 1.5zm-6.2.4c-4.7.6-8.2 2.1-8.7 4.9v.1c1 1.5 5.4 2 10.1 1.5-.9-2.7-1.2-5-1.4-6.5zm.1 0c.4-.1.9-.1 1.4-.2-.5.1-.9.1-1.4.2zm4.4-.4c-.4 0-.9 0-1.3.1.4 0 .9 0 1.3-.1zM-67.4 392.4c-2.4.6-5.4 1-8.5 1.1 3.1-.1 6.1-.4 8.5-1.1zm6.4-4.6c0-.1 0-.1 0 0-.6-1-3.2-1.4-6.4-1.3v6c3.4-.9 5.8-2.4 6.4-4.7z"/><path class="st3" d="M-106.6 391.7c1.3.1 2.4.2 3.4.3l3.8-3.8 4.5 4.5c1.3.1 2.7.2 4.3.4l-6.9-6.9 29-29-1.9-1.8-29 29-29-29-2 1.9 29 29c.2 0-5.2 5.4-5.2 5.4z"/><path class="st2" d="M-100.8 392.2c.8.1 1.9.2 3.2.3l-1.8-1.9-1.6 1.7c0-.1.1-.1.2-.1zm-27.8 5.5c3.2-.3 4.6-.3 4.6-.3s.2-.1-.4-.1h-4.7c-.6 0-1.1.1-1.7.1-1.4.2-2.7.4-4 .7-.6.1-1.2.3-1.8.5-.6.2-1.1.4-1.6.7-.5.2-.9.5-1.2.8-.3.3-.5.6-.7.9-.1.1-.1.3-.1.4v.5-.2c0-.1 0-.2.1-.3 0-.1.1-.2.2-.4.1-.3.4-.5.7-.8.3-.3.7-.5 1.2-.7.9-.4 2.1-.8 3.3-1 1.3-.3 2.6-.5 4-.6.6-.1 1.3-.1 2.1-.2zm68.2-3.4v.3c0 .1-.1.3-.1.4-.2.6-.7 1.3-1.6 2-.8.7-1.9 1.2-3.2 1.7-1.2.5-2.6.8-4 1-.3 0-.5.1-.8.1h-.2c-.2 0-.4 0-.5.1-1.8.3-3.1.4-3.5.5-.4 0-.2.1 0 .1.1 0 .9 0 2.1-.1.9-.1 1.9-.2 2.9-.4 1.4-.3 2.8-.6 4.1-1.1.6-.2 1.2-.5 1.8-.8.5-.3 1-.6 1.4-1 .8-.7 1.3-1.5 1.5-2.1.1-.3.1-.6.1-.7v-.3.3z"/><g><path class="st2" d="M-120.3 393.3c-1.6 0-2.8 1-2.8 2.4 0 1.2.9 2.4 2.5 2.3l-1.5 1.9h1.8l1.9-2.4c.4-.5.7-1.1.7-1.8 0-1.3-1.1-2.4-2.6-2.4zm-.1 3.4c-.6 0-1-.5-1-1s.4-1 1-1 1 .5 1 1c0 .6-.4 1.1-1 1zm7.3-3.1c-1.9-.1-3.6 1.2-3.7 3.1-.1 2 1.4 3.5 3.3 3.6 1.9.1 3.6-1.2 3.7-3.1s-1.4-3.4-3.3-3.6zm-.3 5.2c-1.1-.1-1.7-.9-1.6-2 .1-1 .7-1.8 1.8-1.7 1.1.1 1.7.9 1.6 1.9-.1 1.1-.7 1.9-1.8 1.8zm10.3-1.6l-1.3-2.8-1.9-.2 2.1 4.5-.2 2.3 1.8.1.2-2.3 2.8-4-1.8-.2m2.2 6.8l4.7.4.1-1.5-3-.3.1-1.1 2.4.2.1-1.4-2.4-.2.1-1.1 2.8.3.1-1.5-4.6-.4m8.7.7l-3.7 6.4 1.7.1.5-.8 2.1.1.3.9 1.8.1-2.7-6.9c.1.1 0 .1 0 .1zm.2 4.5l-1-.1.6-1.4.4 1.5zm9-1.3c.1-1.5-.9-2.6-2.7-2.7l-2.5-.1-.2 6.6 1.8.1.1-1.5h.7l.9 1.5 1.9.1-1.1-1.9c.6-.4 1-1.2 1.1-2.1zm-2.9 1h-.6l.1-2.2h.6c.8 0 1.1.5 1 1.1 0 .6-.3 1.1-1.1 1.1zm6.9-1.1l-.9-.3c-.3-.1-.5-.2-.5-.5s.2-.5.6-.5c.5 0 .8.2 1.1.4l1-1.1c-.4-.4-1.1-.8-2.2-.8-1.2 0-2.2.7-2.2 2 0 1.1.7 1.6 1.7 1.9l.8.2c.4.1.7.3.7.5 0 .4-.3.5-.8.5-.7 0-1.1-.3-1.4-.7l-1.2 1c.4.5 1.3 1.2 2.8 1.1 1.7-.1 2.5-.9 2.4-2.2-.1-.5-.6-1.1-1.9-1.5z"/></g></g></g><g id="Layer_2"><path class="st2" d="M-25.4 394.6c-1.1.1-2.1.2-3.6.2-2.1 0-2.9 0-4.5-.2-.3 0-.3.6-.2.6 3.1.4 3.3.8 3.3 5.3v8.4c0 4.8-2.4 7.4-7.1 7.4-3.6 0-7.4-2.4-7.4-8v-7.5c0-5.1 0-5.3 3.3-5.6.1 0 .3-.6-.1-.6-1.1.1-2.8.2-4.3.2-2 0-3.7 0-5.2-.2-.3 0-.1.6.2.6 3.1.4 3.4.4 3.4 5.6v8.2c0 5.6 4.3 9 9.7 9 6.2 0 9.4-4 9.4-8.8v-8.8c0-4.2 0-5 3.3-5.3.2.1.2-.6-.2-.5M3.2 394.6c-1.1.1-2 .2-3.5.2-2 0-2.9 0-4.4-.2-.3-.1-.2.6 0 .6 3.2.4 3.3.7 3.3 5.6v11.6l-16.7-17.6c-2.1 0-3.4-.1-4.9-.2-.4 0-.1.6 0 .6 1.7.2 4 2.2 4 3.8v12.3c0 4.9-.2 5.2-3.4 5.5-.1 0-.3.7 0 .7 1.5-.2 2.3-.2 4.4-.2 1.5 0 2.4.1 3.5.2.4 0 .3-.7.2-.7-3.3-.2-3.2-.9-3.2-5.5v-11.7l17.2 18.1c.2.2.6.1.6 0-.2-1.5-.3-4.7-.3-6.4v-10.5c0-4.7 0-5.3 3.2-5.6.3-.1.4-.7 0-.6M15.5 395.2c.2 0 .4-.6 0-.6-1.1.1-2.8.2-4.3.2-2.1 0-3.7 0-5.2-.2-.4 0-.1.6 0 .6 3.1.4 3.3.4 3.3 5.6v10.5c0 5.3-.2 5.2-3.3 5.5-.1 0-.3.7 0 .7 1.5-.2 3.1-.2 5.2-.2 1.5 0 3.2.1 4.3.2.3 0 .1-.7-.1-.7-3.2-.2-3.3-.5-3.3-5.5v-10.5c.1-5.1.2-5.4 3.4-5.6M58.1 413.3c-.5 2.3-.8 2.7-6.2 2.7H50c-1.6 0-2.3-.3-2.3-4.9V406h3.8c3.2 0 3.4.4 3.6 1.5 0 .1.7.1.6 0v-1.4c0-.8.1-1.7.2-2.2-.1-.1-.6-.3-.7-.2-.2.9.1 1.1-3.8 1.1h-3.8v-4.2c0-2.2.2-4 .3-4.9h3.4c4.6 0 5.3.5 5.6 2.1 0 .1.7.2.6 0v-1.3c0-.7 0-1.4.2-2-2.1.2-4.5.3-7.1.3-3.6 0-6.3-.2-10.3-.1-.2 0-.2 0-.3.1h-1.3c-1.5 0-2.4-.1-3.5-.2-.4 0-.1.6 0 .6 1.6.1 2.3.4 2.3 1.2 0 .8-.4 1.8-1.5 4.4l-5.6 12.7-5.3-12.7c-.9-2.2-1.4-3.8-1.4-4.4 0-1 .8-1 2.4-1.2.2 0 .3-.7 0-.6-1.5.2-3.3.2-5.4.2-1.5 0-2.9-.1-4-.2-.3-.1-.1.6 0 .6 3.1.3 3.5 1.5 5.2 5.7l7.2 16.9c.1.3.5.2.6 0l7.7-16.9c1.8-4 2.1-5.3 4.8-5.5 2.4.3 2.4.8 2.4 5.5v10.5c0 5.3 0 5.2-3.6 5.5-.1 0-.2.7.1.7 2.6-.2 6.2-.2 9.7-.2 2.6 0 4.9.2 6.1.2.6 0 .8-.1 1-.7.2-.7.5-2.4.7-3.3.1-.3-.5-.3-.5-.3M87.2 398.6c0-2.2 2-3.6 4.2-3.6 2.6 0 4.3 1.3 4.7 3.9 0 .1.7.1.7 0 0-2.4-.2-3.7-.5-3.8-1.2-.7-2.6-1.1-4.6-1.1-4.1 0-6.9 3.3-6.9 6.5 0 6.4 10.6 6.4 10.6 12.2 0 2.8-2.3 4.1-4.7 4.1-3.6 0-5.6-2.4-5.9-5.9 0-.1-.6-.1-.6 0-.1 2.5-.4 4.5-.2 4.6 1.9 1.5 3.9 2.3 6.4 2.3 4.2 0 7.2-3.3 7.2-7.1-.1-6.7-10.4-6.6-10.4-12.1M111 395c.2 0 .3-.6 0-.6-1.1.1-2.8.2-4.3.2-2.1 0-3.7 0-5.2-.2-.3 0-.1.6 0 .6 3.1.4 3.3.4 3.3 5.6v10.5c0 5.3-.2 5.2-3.3 5.5-.1 0-.3.7 0 .7 1.5-.2 3.1-.2 5.2-.2 1.5 0 3.2.1 4.3.2.4 0 .2-.7 0-.7-3.2-.2-3.2-.5-3.2-5.5v-10.5c0-5 0-5.3 3.2-5.6M152.6 394.5c-1.1.1-1.7.2-3.2.2-2 0-2.8 0-4.3-.2-.3-.1-.2.6 0 .6 2.8.3 2.5.6-.8 5.4l-3 4.3-2.3-3.5c-3.3-5-4.1-6-1-6.2.1 0 .3-.6-.1-.6-1.1.1-3 .4-4.5.4-1 0-.9-.1-3-.1h-12c-5 0-5.8-.6-6-.4-.2.3 0 3.2-.1 3.9 0 .1.5.1.6 0 .4-1.6 1.1-2.4 5.6-2.4h2.7v15c0 5.2-.2 5.2-3.2 5.5-.2 0-.3.7 0 .7 1.5-.2 3.1-.2 5.1-.2 1.5 0 3.2.1 4.3.2.3 0 .3-.7.1-.7-3.2-.2-3.2-.5-3.2-5.5v-15h5.5c2.3.3 3.1.7 6.2 5.4l3.2 4.8v4.8c0 5.2-.2 5.1-3.3 5.5-.1 0-.3.7 0 .7 1.5-.2 3.1-.2 5.1-.2 1.5 0 3.2.1 4.3.2.3 0 .2-.7.1-.7-3.2-.2-3.2-.5-3.2-5.5V406l3.7-5.3c3.3-4.6 3.9-5.3 6.9-5.6 0 0 .1-.6-.2-.6"/><path class="st2" d="M84.5 417.5c-3.8 0-10.8-10.9-9.9-11.3h-.1c.1-.1.3-.1.4-.2 2.4-1.3 4.3-3.1 4.3-6.1-.1-3.9-4.2-5.5-9.3-5.5-3.9 0-7.4.1-8.8.6-.3.1-.1.7.1.6.5-.1 1-.1 1.4-.1 2 0 2.1 1.2 2.1 5.2v10.6c0 5.3-.2 5.2-3.3 5.5-.1 0-.3.7 0 .7 1.5-.2 3.1-.2 5.1-.2 1.5 0 3.3.1 4.3.2.4 0 .2-.7.1-.7-3.3-.2-3.2-.5-3.2-5.5v-4.1h1.9c1.2 0 2.1.3 2.7 1.3 2.7 5 7.1 9.5 12.2 9.5.3.1.1-.5 0-.5M69 406.2h-1.3v-5.8c0-2.6 0-4.2.2-4.9.6 0 1-.1 1.6-.1 3.5 0 6.6 1.2 6.6 6 0 2.9-1.8 4.8-7.1 4.8"/><g><path class="st2" d="M-37.3 367.8c3.1-.9 5.3-3.4 5.3-5.8 0-4.1-3.9-6.3-8.6-6.3-1.4 0-4.1.2-5.1.2-2.4 0-3.7 0-5.4-.2-.4 0-.2.7-.1.7 3.7.4 3.8.4 3.8 6.6v12.5c0 6.2-.1 6.2-3.8 6.6-.1 0-.3.8.1.8 1.7-.2 3.7-.2 6.1-.2 1 0 3.8.2 5.2.2 6.3 0 10.3-3.7 10.3-8.3.1-3.8-3.2-6.6-7.8-6.8m-2.7 13.8c-3.2 0-3.3-.5-3.3-5.9V363c0-3.1-.1-4.7.2-5.9.7-.1 1-.2 1.6-.2 3.6 0 6.1 1.5 6.1 5.6 0 3.9-2.1 5.3-7.1 5.3-.2 0-.2.8 0 .8 5.9-.6 9.5 2.4 9.5 6.5-.1 4.9-2.4 6.5-7 6.5M17.3 367.8c3.1-.9 5.3-3.4 5.3-5.8 0-4.1-3.9-6.3-8.6-6.3-1.4 0-4.1.2-5.1.2-2.4 0-3.6 0-5.4-.2-.4 0-.1.7.1.7 3.7.4 4 .4 4 6.6v12.5c0 6.2-.3 6.2-4 6.6-.1 0-.4.8 0 .8 1.7-.2 3.7-.2 6.1-.2 1 0 3.8.2 5.2.2 6.3 0 10.3-3.7 10.3-8.3 0-3.8-3.3-6.6-7.9-6.8m-2.8 13.8c-3.2 0-3.4-.5-3.4-5.9V363c0-3.1 0-4.7.2-5.9.7-.1 1-.2 1.6-.2 3.6 0 6.1 1.5 6.1 5.6 0 3.9-2.1 5.3-7.1 5.3-.2 0-.2.8 0 .8 5.9-.6 9.5 2.4 9.5 6.5.1 4.9-2.3 6.5-6.9 6.5M46.7 355.7c-1.3.2-3.4.2-5.1.2-2.4 0-4.4 0-6.1-.2-.4 0-.1.7.1.7 3.7.4 4 .4 4 6.6v12.5c0 9-1.4 12.3-7.2 14.8-.1 0 0 .8.3.7 8-3.1 10.5-7.3 10.5-15.5V363c0-6-.1-6.3 3.7-6.6.1 0 .2-.8-.2-.7M63 355.1c-9.2 0-14.2 7.7-14.2 14.6 0 7.2 4.6 13.7 13.4 13.7 9.2 0 14.3-7.7 14.3-14.6 0-7.2-4.6-13.7-13.5-13.7m.2 27c-5.9 0-10.7-4.7-10.7-13.8 0-7.5 3.3-12 9.5-12 5.9 0 10.7 4.7 10.7 13.9.1 7.5-3.2 11.9-9.5 11.9M109.1 355.7c-1.2.2-2.4.2-4.2.2-2.4 0-3.4 0-5.1-.2-.3-.1-.1.7 0 .7 3.7.4 4 .9 4 6.6v13.7L84 355.9c-2.5 0-4.1-.1-5.8-.3-.4 0-.4.7-.3.7 1.9.2 4.4 2.7 4.4 4.5v14.6c0 5.8 0 6.2-3.7 6.6-.1 0-.3.8.1.8 1.7-.2 2.8-.2 5.2-.2 1.7 0 2.9.1 4.2.2.4 0 0-.8-.1-.8-3.9-.3-4-1-4-6.6v-13.8l20.7 21.4c.3.3.8.1.8 0-.2-1.7-.3-5.5-.3-7.6V363c0-5.5.1-6.3 3.9-6.6.3-.1.5-.8 0-.7M132.3 377.9c-.6 2.7-1 3.2-7.4 3.2h-2.2c-1.9 0-2.9-.4-2.9-5.8v-6h4.6c3.8 0 4.1.5 4.3 1.8 0 .1.8.2.7 0v-1.6c0-1 .1-2 .3-2.6-.1-.1-.7-.4-.8-.2-.2 1.1.1 1.3-4.5 1.3h-4.6v-5c0-2.6.3-4.7.5-5.8h4c5.4 0 6.3.6 6.6 2.5 0 .1.8.3.7 0v-1.6c0-.9 0-1.6.3-2.4-2.5.2-5.3.3-8.3.3-4.2 0-8.3-.1-11.3-.3-.4 0-.1.8 0 .8 4.2.5 4.3.3 4.3 6.6v12.5c0 6.3-.1 6.1-4.3 6.6-.1 0-.4.8 0 .8 3-.2 7.3-.2 11.5-.2 3.1 0 5.7.2 7.3.2.7 0 1-.1 1.2-.9.2-.9.6-2.8.8-3.9 0-.4-.8-.4-.8-.3M140.8 360.5c0-2.6 2.4-4.2 5-4.2 3 0 5.1 1.6 5.6 4.6 0 .1.8.2.8 0 0-2.8-.3-4.4-.6-4.5-1.5-.8-3-1.3-5.4-1.3-4.8 0-8.2 3.9-8.2 7.7 0 7.6 12.5 7.6 12.5 14.5 0 3.3-2.7 4.9-5.5 4.9-4.3 0-6.6-2.8-6.9-7 0-.1-.7-.2-.7 0-.2 2.9-.5 5.3-.2 5.5 2.2 1.8 4.6 2.8 7.6 2.8 5 0 8.5-3.9 8.5-8.4-.3-8.1-12.5-7.9-12.5-14.6M-12.1 355.1c-9.2 0-14.2 7.7-14.2 14.6 0 7.2 4.6 13.7 13.4 13.7 9.2 0 14.3-7.7 14.3-14.6 0-7.2-4.7-13.7-13.5-13.7m.2 27c-5.9 0-10.7-4.7-10.7-13.8 0-7.5 3.3-12 9.5-12 5.9 0 10.7 4.7 10.7 13.9.1 7.5-3.2 11.9-9.5 11.9"/></g><g><path class="st3" d="M-43.6 435.8c-.5 0-1.4-.1-2.5-.1-1.4 0-3.2 0-4.2.1-.1 0-.1-.4 0-.4 1.4-.2 1.6-.4 1.6-2.2V429c0-1.8-.1-2-1.6-2.2-.1 0-.1-.4 0-.4 1.1.1 2.7.1 4.2.1 1 0 2 0 2.9-.1-.1.3-.1.7-.1 1v.7s-.4.1-.4 0c-.1-.6-.3-.9-2.2-.9h-1.2c-.1.3-.1.9-.1 1.7v1.7h.9c1.6 0 1.7 0 1.9-.6 0 0 .4-.1.3 0-.1.2-.1.8-.1 1.1v.8h-.4c-.1-.7-.2-.8-1.8-.8h-.9v1.9c0 1.8.1 2 .7 2h.7c2.2 0 2.2-.3 2.4-1.2h.4c-.1.4-.2 1.3-.3 1.6.1.3.1.4-.2.4zM-40.7 435c-.1-.1 0-1.1 0-2.1 0-.1.3-.1.3 0 .1 1.4.9 2.6 2.3 2.6 1 0 1.7-.6 1.7-1.5 0-2.4-4.2-2.4-4.2-5 0-1.3 1.2-2.6 2.9-2.6.8 0 1.4.2 1.9.5.1.1.3.8.3 1.8 0 .1-.4.1-.4 0-.2-1-.9-1.8-1.9-1.8-.9 0-1.5.4-1.5 1.3 0 2.3 4.1 2.2 4.1 4.9 0 1.5-1.2 2.9-3 2.9-.9 0-1.8-.4-2.5-1zM-24.1 428.3c0 .1-.3 0-.3 0-.1-.6-.6-1.1-2.1-1.1h-1.2v6c0 1.7.1 2 1.4 2.2.1 0 .1.4-.1.4-.4-.1-1.4-.1-2-.1-.8 0-1.7 0-2.3.1-.2 0-.1-.4 0-.4 1.2-.1 1.4-.4 1.4-2.2v-6h-1.3c-1.5 0-2 .4-2.2 1.1h-.3c.1-.3.1-1 .1-1.4 0-.2 0-.4-.1-.7 0-.1.3-.1.3 0 .1.5.2.5 2.2.5h4.1c2 0 2.1 0 2.2-.5 0-.1.4 0 .3 0-.1.3-.1.8-.1 1.3-.1.2-.1.7 0 .8zM-22.4 436c-.5 0-.8-.4-.8-.8s.3-.8.8-.8.8.4.8.8-.3.8-.8.8zM-10.1 435.8c-.4-.1-1.6-.1-2.2-.1-.8 0-2.1 0-2.6.1-.1 0-.1-.4 0-.4 1.2-.1 1.7-.2 1.7-1.7v-4.8c0-1.6-.5-1.6-1.7-1.8-.1 0-.1-.4 0-.3.6.1 1.8.1 2.6.1.6 0 1.8 0 2.2-.1.1 0 .1.3 0 .3-1.2.1-1.7.3-1.7 1.8v4.8c0 1.5.4 1.6 1.7 1.7.1 0 .2.4 0 .4zM-7.8 439c-.2 0-.2-.3-.1-.3 5-1.9 6.3-5 6.3-8 0-2.3-1.2-3.6-2.6-3.6-1.5 0-2.2 1.2-2.2 2.9 0 1.5.9 2.6 2.2 2.6.4 0 .8-.1 1-.2.1-.1.3.2.2.2-.5.5-1.3.9-2 .9-1.9 0-3-1.6-3-3 0-2 1.7-3.8 4-3.8 2.6 0 4.1 1.9 4.1 4.1 0 3-2.1 6.5-7.9 8.2zM9.2 435.5c-.1.2-.2.3-.4.3-.6 0-1.9-.1-3.1-.1-1.6 0-2.8 0-4 .1-.1 0-.2-.4-.1-.5 3.3-1.7 5-3.3 5-5.3 0-1.4-.8-2.3-1.9-2.3-.9 0-1.6.4-2.2 1.1-.1.1-.3-.2-.2-.3.8-1.1 1.8-1.9 3.1-1.9 1.7 0 2.8 1.3 2.8 2.7 0 1.9-2.1 3.8-4 5h2.7c1.8 0 2.1-.2 2.2-1.3 0 0 .3-.1.3 0 .1.5-.1 2.2-.2 2.5zM12.6 439c-.1.2-1-.2-.9-.4 2.2-3.7 4.3-7.6 5.8-10.2h-3.9c-1.8 0-2.1.3-2.2 1.5h-.3c0-.5.1-2.4.2-2.6.1-.2.1-.3.4-.3.6 0 1.8.1 3 .1 1.6 0 2.6 0 3.8-.1.1 0 .3.4.2.5-1.6 3-4.3 7.9-6.1 11.5z"/></g><g><path class="st5" d="M-101.7 435.8"/><path class="st3" d="M-71.9 413.5c3.4-6.9 2.9-12.4 2.9-12.4v-42.2l-28.7 28.7 25.8 25.9zM-134.5 359v42.1s-.5 5.6 2.9 12.5l25.8-25.8-28.7-28.8z"/><path class="st2" d="M-128.5 418.5c2 2.6 4.5 5.2 7.9 7.7 0 0 12.3 9.5 18.9 9.6 6.6 0 18.9-9.6 18.9-9.6 3.4-2.5 6-5.1 7.9-7.7l-26.8-26.8-26.8 26.8zM-73.1 355.1h-57.2l28.6 28.6z"/><path class="st3" d="M-99.8 387.7l29.7-29.7-1.9-1.8-29.7 29.7-29.7-29.7-2.1 1.9 29.7 29.7L-131 415c.4.8.9 1.5 1.4 2.3l27.6-27.6 27.7 27.7c.6-.8 1.1-1.7 1.5-2.5l-27-27.2z"/><path class="st4" d="M-110.3 365.1c.1-.4.2-1.3.9-.8 2.3.5 4.3.5 6.7.6l.2-.1c0-1.9-.3-3.7-.6-5.4-.4-.7.4-.8.8-.9.2-.1.2-.5.5-.4.3-.1.3.4.5.4.4.1 1.3.2.8.9-.3 1.7-.6 3.6-.6 5.4l.2.1c2.4-.1 4.4-.1 6.7-.6.7-.4.8.4.9.8.1.2.5.2.4.5 0 .3-.4.3-.4.5-.1.4-.2 1.3-.9.8-2.4-.3-4.1-.7-6.8-.6l-.1.1c.1 3 .3 5.6.8 8.2.5.9-.5 1-1 1.1-.3.1-.2.5-.6.5-.4 0-.4-.4-.6-.5-.5-.1-1.5-.2-1-1.1.5-2.6.9-5.4 1-8.2l-.1-.1c-2.6-.1-4.3.3-6.8.6-.7.4-.8-.4-.9-.8-.1-.2-.5-.2-.4-.5-.1-.2.4-.2.4-.5M-77.6 375.7c0 .5-.1 1-.1 1.1-.4.8-1.3 1.3-2 1.8-.3.2-.7.9-.7.9s-.1.1-.1-.1v-.4c0-.1.1-.3.1-.3.1-.3.3-.5.5-.7.7-.5.8-.9.8-.9-.7.5-.9.2-1.4.6-.1.2-.1.4-.2.5h-.1c-.1-.1-.2-.2-.2-.3v-.3c.1-.2.1-.2.1-.3.4-.6 1.2-.9 2-1.5.3-.2.5-.4.6-.6.1-.1.2-.4.3-.5v-.4s-.1-.2 0-.3c0-.1.1-.2.2-.1s.2.2.2.4c-.1.4 0 .7 0 1.4M-84.6 394.2c-.2 0-.4.1-.5.2-.2.3-.2.7-.2.7s.5.2 1.9.3c1.4.1 2.9.1 2.9.1s1.4 0 2.9-.1c1.4-.1 1.9-.3 1.9-.3s0-.4-.2-.7c-.1-.1-.3-.2-.5-.2-1.2.2-2.6.3-4.1.3-1.5 0-2.9-.1-4.1-.3M-80.5 381.5h2.1c.2-.3.2-.5 0-.6-.3-.2-.9-.2-1.3-.3-.4-.1-.3-.7-.8-.7s-.5.6-.8.7c-.4.1-1 .1-1.3.3-.2.1-.2.3 0 .6h2.1zM-73.8 381.6c-.1-.1-.9.3-1 .5 0 .1 0 .3.1.5-.3.2-1 .4-1.4.5-.9.1-1.7-.4-2-.6 0 0 .1-.2.1-.4 0-.1-.2-.2-.2-.2h-4.4s-.2.1-.2.2c-.1.2.1.4.1.4-.3.2-1.2.7-2 .6-.5 0-1.1-.2-1.4-.5.1-.2.1-.4.1-.5 0-.2-.9-.7-1-.5-.4.4-1 1.3-.7 3.1.3 1.3 1.5 2.2 2.5 3.4.1.1.2.3.3.4.4.6.3.8.4 1.1.1.3.5.3.6.1.3-.3.2-.7 0-1.1.1.2.4.6.6.8.3.2.7.5.8.6.5.3.8.6.8 1.1 0 .5-.4 1-.9 1.1-.1 0-.2.1-.3.1l-.4.4c-.1.1-.3.2-.5.3-.2.1-.5.4-.2.7 1.1.2 2.4.2 3.7.2 1.3 0 2.5-.1 3.7-.2.3-.3 0-.6-.2-.7-.2-.1-.3-.2-.5-.3-.1-.1-.2-.3-.4-.4-.1-.1-.2-.1-.3-.1-.5-.1-.9-.6-.9-1.1 0-.5.3-.9.8-1.1.1-.1.5-.3.8-.6.2-.2.4-.6.6-.8-.1.4-.3.9 0 1.1.2.1.5.1.6-.1.1-.3 0-.5.4-1.1.1-.2.2-.3.3-.4 1-1.2 2.3-2.1 2.5-3.4.2-1.7-.5-2.7-.9-3.1m-12.8 3.6c-.1-.4-.2-.8-.1-1.2.4.2 1.3.5 1.8.5-.1.4-.2.9-.2 1.4 0 .6.1 1.1.3 1.7-.6-.8-1.5-1.5-1.8-2.4m12.1 0c-.3.8-1.2 1.6-1.8 2.3.2-.5.3-1.1.3-1.7 0-.5-.1-.9-.2-1.4.5 0 1.4-.2 1.8-.5.1.6.1.9-.1 1.3M-123.6 392.7v-11.2c0-1-3.2-1.8-7-1.8v12.2c3.6-.5 7 0 7 .8M-116.2 391.8v-12.2c-3.8 0-7 .8-7 1.8v11.2c0-.7 3.4-1.2 7-.8"/><path class="st4" d="M-123.6 393.9c-1-1.4-5.2-1.6-7.5-1.6v-11.1h-.7v1.5c-.4-.2-.5.4-.6.7-.1.2-.4.2-.3.4 0 .2.3.2.3.4.1.3.2.9.6.7v3.6c-.4-.2-.5.4-.6.7-.1.2-.4.2-.3.4 0 .2.3.2.3.4.1.3.2.9.6.7v2.4s5.7.4 6.8.5v.2c0 .2.8.9 1.5.9s1.5-.8 1.5-.9v-.2c1.1-.1 6.8-.5 6.8-.5v-2.4c.4.2.5-.4.6-.7.1-.2.4-.2.3-.4 0-.2-.3-.2-.3-.4-.1-.3-.2-.9-.6-.7v-3.6c.4.2.5-.4.6-.7.1-.2.4-.2.3-.4 0-.2-.3-.2-.3-.4-.1-.3-.2-.9-.6-.7v-1.5h-.7v11.1c-2.2 0-6.4.1-7.5 1.6h-.2zM-95.4 424.5l-.3-.3c.2-.1.3-.3.3-.3s-.5-.1-.7-.2c-.2-.7-.3-1.7-.4-2.5.3.1.6.2.7.1.3-.2.2-1 0-1.3-.3-.5-.8-.5-.8-.9-.1-1.4-.2-2.5-.6-3.6-.1-.3-.5-1.1-.7-1.4-.1-.2 0-.8.2-1.3.2.1.4.4.4.4s0-.4-.1-.7c-.1-.1 0-.2 0-.3 0-.1.1-.2.2-.3.2.1.3.4.3.4s.2-.8.1-1.1c0-.1-.1-.3-.1-.4 0-.3.3-.6.4-.9.4-.8.7-1.7.7-2.5 0-1.1-.2-2.8-.2-3.4 0-.2-.1-.5.1-.7.5-.3.4-1 .3-1.2-.1-.3-.5-.3-.8-.2-.1.1-.4.3-.4.2-.1-.1-.3-.7-.6-.7-.4-.1-.6.4-.6.4-.1 0-1.3-.2-1.7-.2-.4 0-.5 0-.6.1-.2.1-.1.3-.5.3s-1.8-.1-2 0c-.1 0-.1.3-.1.5h.4c.1 0 .3-.1.3-.1s-.2.3-.3.3h-.4c0 .1 0 .4.1.6 0 .1.1 0 .1.1 0 .2.2.3.2.3s0-.4.1-.4c.1-.1.2-.1.2-.1v.2c0 .1.1.3.1.3s.1-.3.2-.4c.1-.1.8.4.9.8.1.3.1.7.1.8-.1.1-.8.1-1 0-.1-.1-.2-.2-.2-.3 0-.1-.1-.3-.1-.3 0 .1-.1.3-.2.4 0 0-.1 0-.1-.1l-.1-.3s-.1.1-.1.3v.4c0 .3.2.5.3.5.3.1.6.1.9.2.2.1.4.3.5.5 0 .1-1 .4-1.7.9-.4.3-.8.8-.8.8l-1.3-.5c-.5-.3-1.5-.8-1.7-1.3-.4-1.2 1-1.4.7-2.5-.1-.2-.3-.5-.6-.7 0 .2.2.7 0 .8-.3-.4-.4-1.1-1-1.1.2.2.4.7.1.9-.1-.5-.4-.7-.9-.8.1.3.5.7.3 1.1-.3-.3-.8-.7-1.3-.6.3.3.7.6.7 1.1-.2-.2-.6-.3-.9-.2.1.3.5.3.5.7 0 .1-.1.3-.1.5.1.3.4.3.5.5.1.4.1.7.2 1 .1.3.3.5.5.8.7.9 1.2 1.5 2 2.2 0 0 .3 0 1.6-.5-.8.7-1.9 1.5-2.5 2-.3.2-.7.5-1.1.4-.6-.1-.9-.3-1-.6-.1-.3-.1-.6-.4-.8-.3-.2-1.1-.3-1.1-.3s.5.3.5.5c0 0-.3-.1-.9 0-.4.1-.8.4-.8.4s.8-.1 1.2.2c.2.1.2.4.2.4s-.4-.1-.7-.1c-.3 0-.8.3-.8.3s.3 0 .5.1c.3.1.6.2.7.4 0 0-.4 0-.7.2-.2.1-.3.5-.3.5s.3-.2.6-.2.6.3.5.4c-.4.2-.7.4-.7.4s.2.1.5.1c.5-.1 1.2.6 1.6.6.7 0 2.1-.2 2.7-.4.7-.3 2.2-.6 2.9-1.1.6-.4.9-1 .9-1s0 .8-.7 1.4c-.4.3-2 1.1-2 1.1s-.1 1.1 0 1.6c.1.8.5 2.4.4 2.3 0 0 .7-.6 1-.8.9-.6 1.5-.8 2-1-.4.3-1.2.8-1.8 1.3-.7.6-2.2 2.2-2.6 3.3-.5 1.2-.3 3.2-.6 3.7-.2.4-.3.5-.6.7-.3.2-1.2.5-1.4.4-.4-.3-1.2-.1-1.4.2 0 0 .9-.1 1 .3 0 .1-.2 0-.5.2s-.3.7-.3.7.6-.3.9-.4h.3l-.2.2c-.2.2-.2.6-.2.6s.4-.4.9-.5c.1 0 .5.4 1.3.4h1.5c.4 0 .7.1 1.1 0 .1 0 .2-.2.4-.4.2.4.9.3.9.3s-.3-.4-.2-.7c0-.2 0-.6.1-.8.5-1 1.3-2.2 2-2.6.7-.4 2.3-.7 3.4-1.6-.3.3-.8.9-1.2 1.2-.4.3-.9.3-1.3.7 0 0 .4.7.7 1 .5.5.8.5 1 .9 0 .2-.1.2-.4.3-.5.2-.8.1-1 .2-.9.3-.6.8-.6.8.4-.3 1.2-.6 1-.4-.4.4 0 .8 0 .8s.2-.4.4-.5c.2-.1.5-.1.5-.1-.3.2-.2.6-.1.7 0 0 .5-.5.7-.5.1 0 .2 0 .4.1s.9-.2 1.2-.3c.3 0 1.2-1.6 1-2m-13-19.3c.1-.9.8-1.5 1.9-1.3-1 0-1.5.7-1.9 1.3m8.4-2.3s-.2-.2-.1-.6h.4c.2 0 .5.2.5.2s-.2 0-.4.1c-.3.2-.4.3-.4.3m.5 3s1.5.1 2.2-.5c.5-.5.4-1.1.4-1.1s.3.9.1 1.2c-.6.7-1.8.8-2.7.4"/></g></g></svg>