<svg xmlns="http://www.w3.org/2000/svg" width="298.014" height="32" viewBox="0 0 298.014 32"><path d="M318.87-42.882V-65.118c0-3.014,2.278-4.882,5.346-4.882,3.11,0,5.259,1.875,5.259,4.882v7.15h-3.681v-6.539c0-1.265-.526-2.094-1.578-2.094s-1.578.83-1.578,2.094v21.013c0,1.264.526,2.094,1.578,2.094s1.578-.83,1.578-2.094v-7.889h-1.752v-3.533h5.433v16.568h-3.33v-1.439A2.934,2.934,0,0,1,323.164-38C320.754-38,318.87-39.875,318.87-42.882ZM115.44-54a16.042,16.042,0,0,1,16.065-15.983A16.041,16.041,0,0,1,147.57-54a16.039,16.039,0,0,1-16.065,15.98A16.041,16.041,0,0,1,115.44-54Zm3.794-.006A12.252,12.252,0,0,0,131.505-41.8a12.253,12.253,0,0,0,12.271-12.208,12.255,12.255,0,0,0-12.271-12.209A12.254,12.254,0,0,0,119.234-54.005ZM237.3-40.442v-9.971a2.2,2.2,0,0,1,2.418-2.191,2.2,2.2,0,0,1,2.416,2.191v9.971a2.19,2.19,0,0,1-2.416,2.19A2.191,2.191,0,0,1,237.3-40.442Zm1.691-9.7v9.426c0,.566.256.938.727.938s.726-.372.726-.938V-50.14c0-.566-.256-.938-.726-.938S238.989-50.706,238.989-50.14Zm-14.837,9.7v-9.971A2.2,2.2,0,0,1,226.57-52.6a2.2,2.2,0,0,1,2.416,2.191v9.971a2.19,2.19,0,0,1-2.416,2.19A2.191,2.191,0,0,1,224.151-40.442Zm1.691-9.7v9.426c0,.566.256.938.727.938s.726-.372.726-.938V-50.14c0-.566-.256-.938-.726-.938S225.842-50.706,225.842-50.14Zm-8.254,9.7v-9.971a2.2,2.2,0,0,1,2.417-2.191,2.2,2.2,0,0,1,2.418,2.191v9.971a2.19,2.19,0,0,1-2.418,2.19A2.189,2.189,0,0,1,217.589-40.442Zm1.689-9.7v9.426c0,.566.256.938.727.938s.726-.372.726-.938V-50.14c0-.566-.254-.938-.726-.938S219.278-50.706,219.278-50.14Zm-15.113,9.7v-9.971a2.172,2.172,0,0,1,2.378-2.191,2.14,2.14,0,0,1,2.339,2.191V-47.2l-1.651-.008V-50.14c0-.566-.215-.938-.689-.938s-.686.372-.686.938v9.426c0,.566.215.938.686.938s.689-.372.689-.938v-3.169h1.651v3.442a2.128,2.128,0,0,1-2.339,2.19A2.16,2.16,0,0,1,204.165-40.442Zm-6.345.02v-3.461h1.641V-40.7c0,.568.2.92.668.92s.668-.352.668-.92l.008-2.112a1.622,1.622,0,0,0-.491-1.348l-1.689-1.818a2.566,2.566,0,0,1-.625-.9,2.518,2.518,0,0,1-.187-1.076v-2.484a2.092,2.092,0,0,1,2.3-2.17,2.153,2.153,0,0,1,2.375,2.17v3.227h-1.649v-2.952c0-.566-.2-.92-.668-.92s-.67.354-.67.92v1.74a1.626,1.626,0,0,0,.491,1.348l1.691,1.819a2.552,2.552,0,0,1,.624.9,2.533,2.533,0,0,1,.188,1.076v2.855a2.138,2.138,0,0,1-2.357,2.17A2.107,2.107,0,0,1,197.82-40.422Zm84.38,2.08-.788-7.762h-3.506l-.832,7.762h-3.5l3.765-31.3h4.777l3.768,31.3Zm-2.978-20.4-1.01,9.373h2.843l-.965-9.374-.388-4.27h-.087ZM103-38.347V-69.658h5.827c3.123,0,4.95,1.875,4.95,4.884v6.982c0,3.013-1.84,4.882-4.952,4.882h-2.057v14.563Zm3.767-17.882h1.624c1.052,0,1.625-.654,1.625-1.919v-6.274c0-1.264-.571-1.917-1.625-1.917l-1.624,0ZM393.772-38.348v-27.9h-3.452v-3.4h10.695v3.4h-3.476v27.9Zm-10.043,0L379-60.366h-.087L379-54.785v16.437h-3.419v-31.3h4.339L383.6-50.985h.087l-.087-6.41V-69.646h3.419v31.3Zm-20.332,0v-31.3h8.721v3.4h-4.944v9.94h4.207v3.4h-4.207v11.161h4.952v3.4Zm-7.1,0V-54.3l.044-6.061h-.087L354.1-38.348H350.86l-2.148-22.018h-.087l.044,6.061v15.956h-3.423v-31.3h5.128l2.059,22.627h.087l2.065-22.627h5.127v31.3Zm-23.231,0v-31.3h8.731v3.4h-4.952v9.94h4.207v3.4h-4.207v11.161h4.952v3.4Zm-20.73,0-.792-7.761h-3.506l-.832,7.761h-3.507l3.773-31.3h4.778l3.762,31.3Zm-2.979-20.4-1.009,9.373h2.842l-.964-9.374-.388-4.27h-.087Zm-12.132,20.4-4.732-22.018H292.4l.087,5.581v16.437h-3.417v-31.3h4.339l3.681,18.661h.087l-.087-6.41V-69.646h3.417v31.3Zm-30.245,0V-54.3l.045-6.061h-.087l-2.148,22.018h-3.243L259.4-60.366h-.09l.045,6.061v15.956h-3.417v-31.3h5.127L263.12-47.02h.1l2.053-22.627H270.4v31.3Zm-81.322-.005v-31.3h3.768l0,31.3Zm-6.444,0V-54.311l.044-6.062h-.1l-2.138,22.019h-3.242l-2.148-22.019h-.087l.042,6.062v15.957h-3.417v-31.3h5.127l2.061,22.627h.087L177.5-69.658h5.127v31.3Zm-17.808,0v-31.3h3.768v31.3Zm-11.592,0v-31.3h3.765v27.9h5.216v3.4Zm93.776-.05V-52.446H247.5v1.525h-2.221v4.459h1.886v1.529h-1.886V-38.4Zm-32.894,0V-52.446h1.689v5.983h1.67v-5.983h1.689v14.037h-1.689v-6.525h-1.67V-38.4Zm20.141,0V-52.446h1.691v12.513h2.337v1.525ZM197.878-57.65v-9.977a2.183,2.183,0,0,1,2.4-2.191,2.15,2.15,0,0,1,2.358,2.191v3.215l-1.652-.011v-2.933c0-.566-.235-.938-.706-.938s-.706.372-.706.938v9.423c0,.567.236.939.706.939s.706-.372.706-.939v-3.536H200.2v-1.583h2.437v7.434H201.14v-.645a1.319,1.319,0,0,1-1.336.8A1.977,1.977,0,0,1,197.878-57.65Zm27.021-.008v-12h1.689v11.729c0,.567.256.939.727.939s.729-.372.729-.939V-69.66h1.689v12a2.189,2.189,0,0,1-2.418,2.19A2.188,2.188,0,0,1,224.9-57.658Zm-16.842,2.035a4.638,4.638,0,0,1-.238-1.808v-3.707c0-.7-.254-1.055-.963-1.055h-.491v6.568h-1.689V-69.66h2.614a2.034,2.034,0,0,1,2.221,2.188v3.013a1.526,1.526,0,0,1-.283.959,1.553,1.553,0,0,1-.818.586,1.755,1.755,0,0,1,1.1,1.76v3.694a5.017,5.017,0,0,0,.236,1.836Zm-1.692-8.016h.727c.473,0,.727-.293.727-.86v-2.813c0-.571-.252-.864-.725-.864h-.729Zm37.281,8.014V-69.66h3.912v1.525h-2.221v4.456h1.886v1.525h-1.886v5h2.221v1.525Zm-4.971,0V-68.135h-1.553V-69.66h4.8v1.525h-1.553v12.511Zm-3.655,0-.355-3.479h-1.571l-.374,3.479h-1.571l1.689-14.036h2.142l1.691,14.036Zm-1.338-9.149-.451,4.2h1.277l-.432-4.2-.177-1.915h-.038Zm-15.5,9.149V-69.66h2.614a2.036,2.036,0,0,1,2.223,2.188v9.658a2.035,2.035,0,0,1-2.221,2.19Zm1.692-1.485h.729c.471,0,.726-.293.726-.86v-9.346c0-.567-.256-.86-.726-.86h-.729Zm-4.977,1.485-.354-3.479h-1.573l-.374,3.479h-1.558l1.689-14.036h2.132l1.692,14.036Zm-1.332-9.149-.453,4.2h1.277l-.433-4.2-.176-1.915h-.039Z" transform="translate(-103 70)" fill="#181818"/></svg>